<mxfile host="65bd71144e" pages="1">
    <diagram id="kGef_nUvl7ccXnx8tOnq" name="Page-1">
        <mxGraphModel dx="1218" dy="748" grid="1" gridSize="10" guides="1" tooltips="1" connect="1" arrows="1" fold="1" page="1" pageScale="1" pageWidth="827" pageHeight="1169" math="0" shadow="0">
            <root>
                <mxCell id="0"/>
                <mxCell id="1" parent="0"/>
                <mxCell id="49" value="" style="rounded=0;whiteSpace=wrap;html=1;" parent="1" vertex="1">
                    <mxGeometry x="375" y="80" width="310" height="115" as="geometry"/>
                </mxCell>
                <mxCell id="13" style="edgeStyle=orthogonalEdgeStyle;rounded=0;orthogonalLoop=1;jettySize=auto;html=1;entryX=0.5;entryY=1;entryDx=0;entryDy=0;" parent="1" source="4" target="11" edge="1">
                    <mxGeometry relative="1" as="geometry">
                        <Array as="points">
                            <mxPoint x="55" y="237.5"/>
                            <mxPoint x="55" y="237.5"/>
                        </Array>
                    </mxGeometry>
                </mxCell>
                <mxCell id="15" value="&lt;pre style=&quot;line-height: 100%&quot;&gt;&lt;br&gt;&lt;/pre&gt;" style="text;html=1;resizable=0;points=[];align=center;verticalAlign=bottom;labelBackgroundColor=#ffffff;labelPosition=center;verticalLabelPosition=top;rounded=0;" parent="13" vertex="1" connectable="0">
                    <mxGeometry x="-0.2666" y="-1" relative="1" as="geometry">
                        <mxPoint as="offset"/>
                    </mxGeometry>
                </mxCell>
                <mxCell id="58" value="&lt;font face=&quot;Comic Sans MS&quot;&gt;Upload&lt;/font&gt;" style="text;html=1;resizable=0;points=[];align=center;verticalAlign=middle;labelBackgroundColor=#ffffff;rounded=0;" parent="13" vertex="1" connectable="0">
                    <mxGeometry x="0.1005" y="28" relative="1" as="geometry">
                        <mxPoint x="26" y="28" as="offset"/>
                    </mxGeometry>
                </mxCell>
                <mxCell id="59" style="edgeStyle=orthogonalEdgeStyle;rounded=0;orthogonalLoop=1;jettySize=auto;html=1;" parent="1" source="66" edge="1">
                    <mxGeometry relative="1" as="geometry">
                        <mxPoint x="340" y="147.5" as="targetPoint"/>
                    </mxGeometry>
                </mxCell>
                <mxCell id="102" value="Demo&lt;br&gt;" style="text;html=1;resizable=0;points=[];align=center;verticalAlign=middle;labelBackgroundColor=#ffffff;fontFamily=Comic Sans MS;rounded=0;" parent="59" vertex="1" connectable="0">
                    <mxGeometry x="-0.3077" y="-3" relative="1" as="geometry">
                        <mxPoint x="5" y="-3.5" as="offset"/>
                    </mxGeometry>
                </mxCell>
                <mxCell id="4" value="User" style="shape=umlActor;verticalLabelPosition=bottom;labelBackgroundColor=#ffffff;verticalAlign=top;html=1;rounded=0;" parent="1" vertex="1">
                    <mxGeometry x="41" y="236" width="28" height="56" as="geometry"/>
                </mxCell>
                <mxCell id="14" style="edgeStyle=orthogonalEdgeStyle;rounded=0;orthogonalLoop=1;jettySize=auto;html=1;entryX=0;entryY=0.5;entryDx=0;entryDy=0;" parent="1" source="11" target="12" edge="1">
                    <mxGeometry relative="1" as="geometry"/>
                </mxCell>
                <mxCell id="21" value="Parse / Verify" style="text;html=1;resizable=0;points=[];align=center;verticalAlign=bottom;labelBackgroundColor=#ffffff;labelPosition=center;verticalLabelPosition=top;fontFamily=Comic Sans MS;rounded=0;" parent="14" vertex="1" connectable="0">
                    <mxGeometry x="-0.3374" y="3" relative="1" as="geometry">
                        <mxPoint x="17" y="-7" as="offset"/>
                    </mxGeometry>
                </mxCell>
                <mxCell id="11" value="Mock JSON" style="rounded=0;whiteSpace=wrap;html=1;" parent="1" vertex="1">
                    <mxGeometry x="10" y="122.5" width="90" height="30" as="geometry"/>
                </mxCell>
                <mxCell id="55" style="edgeStyle=orthogonalEdgeStyle;rounded=0;orthogonalLoop=1;jettySize=auto;html=1;entryX=0;entryY=0.5;entryDx=0;entryDy=0;" parent="1" source="12" target="49" edge="1">
                    <mxGeometry relative="1" as="geometry"/>
                </mxCell>
                <mxCell id="12" value="GraphData" style="rounded=0;whiteSpace=wrap;html=1;" parent="1" vertex="1">
                    <mxGeometry x="210" y="122.5" width="90" height="30" as="geometry"/>
                </mxCell>
                <mxCell id="34" style="edgeStyle=orthogonalEdgeStyle;rounded=0;orthogonalLoop=1;jettySize=auto;html=1;" parent="1" source="23" edge="1">
                    <mxGeometry relative="1" as="geometry">
                        <mxPoint x="515" y="135" as="targetPoint"/>
                    </mxGeometry>
                </mxCell>
                <mxCell id="23" value="Style" style="rounded=0;whiteSpace=wrap;html=1;fontFamily=Comic Sans MS;" parent="1" vertex="1">
                    <mxGeometry x="400" y="90" width="90" height="20" as="geometry"/>
                </mxCell>
                <mxCell id="32" style="edgeStyle=orthogonalEdgeStyle;rounded=0;orthogonalLoop=1;jettySize=auto;html=1;" parent="1" source="24" target="29" edge="1">
                    <mxGeometry relative="1" as="geometry"/>
                </mxCell>
                <mxCell id="24" value="Layout" style="rounded=0;whiteSpace=wrap;html=1;fontFamily=Comic Sans MS;" parent="1" vertex="1">
                    <mxGeometry x="400" y="125" width="90" height="20" as="geometry"/>
                </mxCell>
                <mxCell id="35" style="edgeStyle=orthogonalEdgeStyle;rounded=0;orthogonalLoop=1;jettySize=auto;html=1;" parent="1" source="25" edge="1">
                    <mxGeometry relative="1" as="geometry">
                        <mxPoint x="515" y="135" as="targetPoint"/>
                    </mxGeometry>
                </mxCell>
                <mxCell id="85" value="" style="edgeStyle=orthogonalEdgeStyle;rounded=0;orthogonalLoop=1;jettySize=auto;html=1;fontFamily=Comic Sans MS;entryX=0.5;entryY=0;entryDx=0;entryDy=0;" parent="1" source="25" target="83" edge="1">
                    <mxGeometry relative="1" as="geometry">
                        <mxPoint x="445" y="260" as="targetPoint"/>
                    </mxGeometry>
                </mxCell>
                <mxCell id="92" value="Choose" style="text;html=1;resizable=0;points=[];align=center;verticalAlign=middle;labelBackgroundColor=#ffffff;fontFamily=Comic Sans MS;rounded=0;" parent="85" vertex="1" connectable="0">
                    <mxGeometry x="-0.0082" y="3" relative="1" as="geometry">
                        <mxPoint x="-18" y="0.5" as="offset"/>
                    </mxGeometry>
                </mxCell>
                <mxCell id="25" value="Components" style="rounded=0;whiteSpace=wrap;html=1;fontFamily=Comic Sans MS;" parent="1" vertex="1">
                    <mxGeometry x="400" y="160" width="90" height="20" as="geometry"/>
                </mxCell>
                <mxCell id="44" style="edgeStyle=orthogonalEdgeStyle;rounded=0;orthogonalLoop=1;jettySize=auto;html=1;entryX=0.5;entryY=0;entryDx=0;entryDy=0;" parent="1" source="37" target="42" edge="1">
                    <mxGeometry relative="1" as="geometry"/>
                </mxCell>
                <mxCell id="45" value="Open in" style="text;html=1;resizable=0;points=[];align=center;verticalAlign=middle;labelBackgroundColor=#ffffff;rounded=0;" parent="44" vertex="1" connectable="0">
                    <mxGeometry x="-0.119" y="2" relative="1" as="geometry">
                        <mxPoint as="offset"/>
                    </mxGeometry>
                </mxCell>
                <mxCell id="37" value="Expolre Code" style="swimlane;fontStyle=0;childLayout=stackLayout;horizontal=1;startSize=26;fillColor=none;horizontalStack=0;resizeParent=1;resizeParentMax=0;resizeLast=0;collapsible=1;marginBottom=0;rounded=0;" parent="1" vertex="1">
                    <mxGeometry x="580" y="280.5" width="140" height="104" as="geometry">
                        <mxRectangle x="630" y="190" width="50" height="40" as="alternateBounds"/>
                    </mxGeometry>
                </mxCell>
                <mxCell id="38" value="ID" style="text;strokeColor=none;fillColor=none;align=left;verticalAlign=top;spacingLeft=4;spacingRight=4;overflow=hidden;rotatable=0;points=[[0,0.5],[1,0.5]];portConstraint=eastwest;rounded=0;" parent="37" vertex="1">
                    <mxGeometry y="26" width="140" height="26" as="geometry"/>
                </mxCell>
                <mxCell id="39" value="@Alipay/graphinsighjt" style="text;strokeColor=none;fillColor=none;align=left;verticalAlign=top;spacingLeft=4;spacingRight=4;overflow=hidden;rotatable=0;points=[[0,0.5],[1,0.5]];portConstraint=eastwest;rounded=0;" parent="37" vertex="1">
                    <mxGeometry y="52" width="140" height="26" as="geometry"/>
                </mxCell>
                <mxCell id="40" value="Services" style="text;strokeColor=none;fillColor=none;align=left;verticalAlign=top;spacingLeft=4;spacingRight=4;overflow=hidden;rotatable=0;points=[[0,0.5],[1,0.5]];portConstraint=eastwest;rounded=0;" parent="37" vertex="1">
                    <mxGeometry y="78" width="140" height="26" as="geometry"/>
                </mxCell>
                <mxCell id="46" style="edgeStyle=orthogonalEdgeStyle;rounded=0;orthogonalLoop=1;jettySize=auto;html=1;entryX=0.5;entryY=0;entryDx=0;entryDy=0;" parent="1" source="42" target="43" edge="1">
                    <mxGeometry relative="1" as="geometry"/>
                </mxCell>
                <mxCell id="47" value="Embed" style="text;html=1;resizable=0;points=[];align=center;verticalAlign=middle;labelBackgroundColor=#ffffff;rounded=0;" parent="46" vertex="1" connectable="0">
                    <mxGeometry x="-0.1944" y="-1" relative="1" as="geometry">
                        <mxPoint as="offset"/>
                    </mxGeometry>
                </mxCell>
                <mxCell id="42" value="Riddle&lt;br&gt;CodeSandBox" style="shape=ext;strokeWidth=2;margin=10;double=1;whiteSpace=wrap;html=1;align=center;fontSize=14;rounded=0;" parent="1" vertex="1">
                    <mxGeometry x="580" y="440.5" width="140" height="90" as="geometry"/>
                </mxCell>
                <mxCell id="96" style="edgeStyle=orthogonalEdgeStyle;rounded=0;orthogonalLoop=1;jettySize=auto;html=1;fontFamily=Comic Sans MS;" parent="1" source="43" edge="1">
                    <mxGeometry relative="1" as="geometry">
                        <mxPoint x="360" y="150.5" as="targetPoint"/>
                    </mxGeometry>
                </mxCell>
                <mxCell id="97" value="Update on GI-Site" style="text;html=1;resizable=0;points=[];align=center;verticalAlign=middle;labelBackgroundColor=#ffffff;fontFamily=Comic Sans MS;rounded=0;" parent="96" vertex="1" connectable="0">
                    <mxGeometry x="-0.5589" y="-1" relative="1" as="geometry">
                        <mxPoint as="offset"/>
                    </mxGeometry>
                </mxCell>
                <mxCell id="98" style="edgeStyle=orthogonalEdgeStyle;rounded=0;orthogonalLoop=1;jettySize=auto;html=1;entryX=1;entryY=0.5;entryDx=0;entryDy=0;fontFamily=Comic Sans MS;" parent="1" source="43" target="39" edge="1">
                    <mxGeometry relative="1" as="geometry">
                        <Array as="points">
                            <mxPoint x="770" y="630.5"/>
                            <mxPoint x="770" y="345.5"/>
                        </Array>
                    </mxGeometry>
                </mxCell>
                <mxCell id="99" value="User&lt;br&gt;development&amp;nbsp;" style="text;html=1;resizable=0;points=[];align=center;verticalAlign=middle;labelBackgroundColor=#ffffff;fontFamily=Comic Sans MS;rounded=0;" parent="98" vertex="1" connectable="0">
                    <mxGeometry x="0.0428" y="-2" relative="1" as="geometry">
                        <mxPoint x="-2" y="1" as="offset"/>
                    </mxGeometry>
                </mxCell>
                <mxCell id="43" value="User System" style="shape=ext;strokeWidth=2;margin=10;double=1;whiteSpace=wrap;html=1;align=center;fontSize=14;rounded=0;" parent="1" vertex="1">
                    <mxGeometry x="580" y="590.5" width="140" height="60" as="geometry"/>
                </mxCell>
                <mxCell id="57" value="Analysis" style="text;html=1;resizable=0;points=[];align=center;verticalAlign=bottom;labelBackgroundColor=#ffffff;labelPosition=center;verticalLabelPosition=top;fontFamily=Comic Sans MS;rounded=0;" parent="1" vertex="1" connectable="0">
                    <mxGeometry x="320" y="135" as="geometry">
                        <mxPoint x="17" y="-7" as="offset"/>
                    </mxGeometry>
                </mxCell>
                <mxCell id="60" value="金融风控" style="strokeWidth=2;dashed=0;align=center;fontSize=8;shape=rect;fillColor=#FFFFFF;strokeColor=#000000;rounded=0;" parent="1" vertex="1">
                    <mxGeometry x="197" y="218" width="58" height="18" as="geometry"/>
                </mxCell>
                <mxCell id="61" value="云安全" style="strokeWidth=2;dashed=0;align=center;fontSize=8;shape=rect;fillColor=#FFFFFF;strokeColor=#000000;rounded=0;" parent="1" vertex="1">
                    <mxGeometry x="210" y="301.5" width="56" height="18" as="geometry"/>
                </mxCell>
                <mxCell id="63" value="图数据库" style="strokeWidth=2;dashed=0;align=center;fontSize=8;shape=rect;fillColor=#FFFFFF;strokeColor=#000000;rounded=0;" parent="1" vertex="1">
                    <mxGeometry x="111" y="218" width="61" height="18" as="geometry"/>
                </mxCell>
                <mxCell id="64" value="知识图谱" style="strokeWidth=2;dashed=0;align=center;fontSize=8;shape=rect;fillColor=#FFFFFF;strokeColor=#000000;rounded=0;" parent="1" vertex="1">
                    <mxGeometry x="111" y="302" width="52" height="18" as="geometry"/>
                </mxCell>
                <mxCell id="67" value="" style="edgeStyle=none;endArrow=none;dashed=0;html=1;strokeWidth=2;rounded=0;" parent="1" source="66" target="60" edge="1">
                    <mxGeometry relative="1" as="geometry"/>
                </mxCell>
                <mxCell id="68" value="" style="edgeStyle=none;endArrow=none;dashed=0;html=1;strokeWidth=2;rounded=0;" parent="1" source="66" target="61" edge="1">
                    <mxGeometry relative="1" as="geometry"/>
                </mxCell>
                <mxCell id="70" value="" style="edgeStyle=none;endArrow=none;dashed=0;html=1;strokeWidth=2;rounded=0;" parent="1" source="66" target="63" edge="1">
                    <mxGeometry relative="1" as="geometry"/>
                </mxCell>
                <mxCell id="71" value="" style="edgeStyle=none;endArrow=none;dashed=0;html=1;strokeWidth=2;rounded=0;" parent="1" source="66" target="64" edge="1">
                    <mxGeometry relative="1" as="geometry"/>
                </mxCell>
                <mxCell id="66" value="领域解决方案" style="strokeWidth=2;dashed=0;align=center;fontSize=8;shape=rect;fillColor=#FFFFFF;strokeColor=#000000;fontFamily=Comic Sans MS;rounded=0;" parent="1" vertex="1">
                    <mxGeometry x="152" y="255" width="58" height="18" as="geometry"/>
                </mxCell>
                <mxCell id="81" style="edgeStyle=orthogonalEdgeStyle;rounded=0;orthogonalLoop=1;jettySize=auto;html=1;" parent="1" source="4" target="66" edge="1">
                    <mxGeometry relative="1" as="geometry">
                        <mxPoint x="340" y="147.5" as="targetPoint"/>
                        <mxPoint x="69" y="264.5" as="sourcePoint"/>
                    </mxGeometry>
                </mxCell>
                <mxCell id="94" value="" style="edgeStyle=orthogonalEdgeStyle;rounded=0;orthogonalLoop=1;jettySize=auto;html=1;fontFamily=Comic Sans MS;entryX=0.75;entryY=1;entryDx=0;entryDy=0;" parent="1" source="83" target="25" edge="1">
                    <mxGeometry relative="1" as="geometry">
                        <mxPoint x="445" y="487.5" as="targetPoint"/>
                        <Array as="points">
                            <mxPoint x="445" y="430.5"/>
                            <mxPoint x="540" y="430.5"/>
                            <mxPoint x="540" y="250.5"/>
                            <mxPoint x="468" y="250.5"/>
                        </Array>
                    </mxGeometry>
                </mxCell>
                <mxCell id="95" value="Produce" style="text;html=1;resizable=0;points=[];align=center;verticalAlign=middle;labelBackgroundColor=#ffffff;fontFamily=Comic Sans MS;rounded=0;" parent="94" vertex="1" connectable="0">
                    <mxGeometry x="0.5295" relative="1" as="geometry">
                        <mxPoint x="5.5" y="-10" as="offset"/>
                    </mxGeometry>
                </mxCell>
                <mxCell id="83" value="" style="rounded=0;whiteSpace=wrap;html=1;fontFamily=Comic Sans MS;" parent="1" vertex="1">
                    <mxGeometry x="382.5" y="280.5" width="125" height="127" as="geometry"/>
                </mxCell>
                <mxCell id="29" value="Canvas" style="rounded=0;whiteSpace=wrap;html=1;fontFamily=Comic Sans MS;" parent="1" vertex="1">
                    <mxGeometry x="580" y="117" width="90" height="36" as="geometry"/>
                </mxCell>
                <mxCell id="52" style="edgeStyle=orthogonalEdgeStyle;rounded=0;orthogonalLoop=1;jettySize=auto;html=1;entryX=0.5;entryY=0;entryDx=0;entryDy=0;" parent="1" source="29" target="37" edge="1">
                    <mxGeometry relative="1" as="geometry">
                        <Array as="points">
                            <mxPoint x="650" y="190.5"/>
                            <mxPoint x="650" y="190.5"/>
                        </Array>
                    </mxGeometry>
                </mxCell>
                <mxCell id="53" value="Publish" style="text;html=1;resizable=0;points=[];align=center;verticalAlign=middle;labelBackgroundColor=#ffffff;rounded=0;" parent="52" vertex="1" connectable="0">
                    <mxGeometry x="-0.2571" y="1" relative="1" as="geometry">
                        <mxPoint x="-1" y="17" as="offset"/>
                    </mxGeometry>
                </mxCell>
                <mxCell id="87" value="&lt;span style=&quot;background-color: rgb(255 , 181 , 112)&quot;&gt;Components Market&lt;/span&gt;" style="text;html=1;fontFamily=Comic Sans MS;rounded=0;" parent="1" vertex="1">
                    <mxGeometry x="390" y="280.5" width="140" height="30" as="geometry"/>
                </mxCell>
                <mxCell id="88" value="&lt;p style=&quot;line-height: 100%&quot;&gt;Pick&lt;/p&gt;" style="rounded=0;whiteSpace=wrap;html=1;fontFamily=Comic Sans MS;align=center;" parent="1" vertex="1">
                    <mxGeometry x="413" y="310.5" width="60" height="19" as="geometry"/>
                </mxCell>
                <mxCell id="89" value="&lt;p style=&quot;line-height: 100%&quot;&gt;Fork&lt;/p&gt;" style="rounded=0;whiteSpace=wrap;html=1;fontFamily=Comic Sans MS;align=center;" parent="1" vertex="1">
                    <mxGeometry x="413" y="341" width="60" height="19" as="geometry"/>
                </mxCell>
                <mxCell id="90" value="&lt;p style=&quot;line-height: 100%&quot;&gt;Custom&lt;/p&gt;" style="rounded=0;whiteSpace=wrap;html=1;fontFamily=Comic Sans MS;align=center;" parent="1" vertex="1">
                    <mxGeometry x="413" y="371.5" width="60" height="19" as="geometry"/>
                </mxCell>
                <mxCell id="50" value="&lt;font face=&quot;Comic Sans MS&quot;&gt;&lt;span style=&quot;background-color: rgb(255 , 181 , 112)&quot;&gt;Graph Analysis&lt;/span&gt;&lt;/font&gt;" style="text;html=1;resizable=0;points=[];autosize=1;align=left;verticalAlign=top;spacingTop=-4;rounded=0;" parent="1" vertex="1">
                    <mxGeometry x="507.5" y="70" width="100" height="20" as="geometry"/>
                </mxCell>
            </root>
        </mxGraphModel>
    </diagram>
</mxfile>